<svg width="70" height="70" viewBox="0 0 70 70" fill="none" xmlns="http://www.w3.org/2000/svg">
<circle cx="35" cy="35" r="35" fill="#F3EEEB"/>
<path d="M38.54 34.29L32.88 28.64C32.787 28.5463 32.6764 28.4719 32.5546 28.4211C32.4327 28.3704 32.302 28.3442 32.17 28.3442C32.038 28.3442 31.9073 28.3704 31.7854 28.4211C31.6635 28.4719 31.5529 28.5463 31.46 28.64C31.2737 28.8274 31.1692 29.0809 31.1692 29.345C31.1692 29.6092 31.2737 29.8627 31.46 30.05L36.41 35.05L31.46 40C31.2737 40.1874 31.1692 40.4409 31.1692 40.705C31.1692 40.9692 31.2737 41.2227 31.46 41.41C31.5526 41.5045 31.663 41.5797 31.7849 41.6312C31.9068 41.6827 32.0377 41.7095 32.17 41.71C32.3023 41.7095 32.4332 41.6827 32.555 41.6312C32.6769 41.5797 32.7874 41.5045 32.88 41.41L38.54 35.76C38.6415 35.6664 38.7225 35.5527 38.7779 35.4262C38.8333 35.2997 38.8619 35.1631 38.8619 35.025C38.8619 34.8869 38.8333 34.7503 38.7779 34.6238C38.7225 34.4973 38.6415 34.3837 38.54 34.29Z" fill="#0F1428"/>
</svg>
