<svg width="70" height="70" viewBox="0 0 70 70" fill="none" xmlns="http://www.w3.org/2000/svg">
<circle cx="35" cy="35" r="35" transform="rotate(-180 35 35)" fill="#F3EEEB"/>
<path d="M31.46 35.71L37.12 41.36C37.213 41.4537 37.3236 41.5281 37.4454 41.5789C37.5673 41.6296 37.698 41.6558 37.83 41.6558C37.962 41.6558 38.0927 41.6296 38.2146 41.5789C38.3364 41.5281 38.447 41.4537 38.54 41.36C38.7263 41.1726 38.8308 40.9191 38.8308 40.655C38.8308 40.3908 38.7263 40.1373 38.54 39.95L33.59 34.95L38.54 30C38.7263 29.8126 38.8308 29.5591 38.8308 29.295C38.8308 29.0308 38.7263 28.7773 38.54 28.59C38.4474 28.4955 38.3369 28.4203 38.2151 28.3688C38.0932 28.3173 37.9623 28.2905 37.83 28.29C37.6977 28.2905 37.5668 28.3173 37.4449 28.3688C37.3231 28.4203 37.2126 28.4955 37.12 28.59L31.46 34.24C31.3585 34.3336 31.2775 34.4473 31.2221 34.5738C31.1667 34.7003 31.1381 34.8369 31.1381 34.975C31.1381 35.1131 31.1667 35.2497 31.2221 35.3762C31.2775 35.5027 31.3585 35.6163 31.46 35.71Z" fill="#0F1428"/>
</svg>
