<svg width="71" height="71" viewBox="0 0 71 71" fill="none" xmlns="http://www.w3.org/2000/svg">
<rect y="5" width="66" height="66" rx="33" fill="#0F1428"/>
<path d="M42.8696 42.386H27.5147C27.2238 42.386 26.9448 42.2704 26.7391 42.0647C26.5334 41.8591 26.4179 41.5801 26.4179 41.2892C26.4179 40.9983 26.5334 40.7193 26.7391 40.5137C26.9448 40.308 27.2238 40.1924 27.5147 40.1924H38.965C39.6984 40.1925 40.4108 39.9475 40.989 39.4964C41.5672 39.0454 41.9782 38.414 42.1567 37.7027L43.9663 30.5846C44.0074 30.4228 44.011 30.2536 43.9768 30.0902C43.9426 29.9267 43.8715 29.7732 43.7689 29.6414C43.6623 29.5062 43.5253 29.398 43.369 29.3256C43.2128 29.2532 43.0417 29.2186 42.8696 29.2246H27.2514C27.0252 28.5846 26.6064 28.0302 26.0527 27.6375C25.499 27.2448 24.8374 27.033 24.1585 27.0311H23.1275C22.8367 27.0311 22.5577 27.1466 22.352 27.3523C22.1463 27.558 22.0308 27.837 22.0308 28.1278C22.0308 28.4187 22.1463 28.6977 22.352 28.9034C22.5577 29.1091 22.8367 29.2246 23.1275 29.2246H24.1585C24.4091 29.2173 24.6545 29.2961 24.8541 29.4477C25.0537 29.5994 25.1952 29.8148 25.2553 30.0582L25.3211 30.5846L27.2185 37.9989C26.3459 38.0381 25.5246 38.4224 24.9353 39.0673C24.346 39.7121 24.037 40.5646 24.0763 41.4373C24.1155 42.3099 24.4998 43.1312 25.1447 43.7205C25.7895 44.3098 26.642 44.6188 27.5147 44.5795H27.7121C27.5317 45.0765 27.4737 45.6097 27.5431 46.1338C27.6125 46.6579 27.8071 47.1576 28.1106 47.5906C28.414 48.0235 28.8173 48.377 29.2863 48.621C29.7554 48.865 30.2763 48.9925 30.805 48.9925C31.3337 48.9925 31.8546 48.865 32.3236 48.621C32.7927 48.377 33.196 48.0235 33.4994 47.5906C33.8029 47.1576 33.9975 46.6579 34.0669 46.1338C34.1363 45.6097 34.0783 45.0765 33.8979 44.5795H36.4863C36.3059 45.0765 36.248 45.6097 36.3173 46.1338C36.3867 46.6579 36.5813 47.1576 36.8848 47.5906C37.1882 48.0235 37.5916 48.377 38.0606 48.621C38.5296 48.865 39.0505 48.9925 39.5792 48.9925C40.1079 48.9925 40.6289 48.865 41.0979 48.621C41.5669 48.377 41.9702 48.0235 42.2737 47.5906C42.5771 47.1576 42.7718 46.6579 42.8411 46.1338C42.9105 45.6097 42.8525 45.0765 42.6721 44.5795H42.8696C43.1605 44.5795 43.4394 44.464 43.6451 44.2583C43.8508 44.0526 43.9663 43.7736 43.9663 43.4828C43.9663 43.1919 43.8508 42.9129 43.6451 42.7072C43.4394 42.5015 43.1605 42.386 42.8696 42.386ZM41.4657 31.4182L40.0289 37.1653C39.9689 37.4087 39.8273 37.6241 39.6277 37.7758C39.4282 37.9274 39.1827 38.0062 38.9321 37.9989H29.4669L27.8218 31.4182H41.4657ZM30.805 46.7731C30.5881 46.7731 30.376 46.7088 30.1957 46.5883C30.0153 46.4677 29.8747 46.2964 29.7917 46.096C29.7087 45.8956 29.687 45.6751 29.7293 45.4623C29.7716 45.2496 29.8761 45.0542 30.0295 44.9008C30.1828 44.7474 30.3783 44.6429 30.591 44.6006C30.8038 44.5583 31.0243 44.58 31.2247 44.663C31.4251 44.746 31.5964 44.8866 31.7169 45.067C31.8375 45.2473 31.9018 45.4594 31.9018 45.6763C31.9018 45.9672 31.7862 46.2462 31.5805 46.4519C31.3748 46.6575 31.0959 46.7731 30.805 46.7731ZM39.5792 46.7731C39.3623 46.7731 39.1503 46.7088 38.9699 46.5883C38.7895 46.4677 38.649 46.2964 38.5659 46.096C38.4829 45.8956 38.4612 45.6751 38.5035 45.4623C38.5458 45.2496 38.6503 45.0542 38.8037 44.9008C38.9571 44.7474 39.1525 44.6429 39.3653 44.6006C39.578 44.5583 39.7985 44.58 39.9989 44.663C40.1994 44.746 40.3707 44.8866 40.4912 45.067C40.6117 45.2473 40.676 45.4594 40.676 45.6763C40.676 45.9672 40.5605 46.2462 40.3548 46.4519C40.1491 46.6575 39.8701 46.7731 39.5792 46.7731Z" fill="white"/>
<g clip-path="url(#clip0_308_25)">
<circle cx="57" cy="14" r="14" fill="#FB9873"/>
<path d="M53.746 17.156C54.898 16.196 55.816 15.398 56.5 14.762C57.184 14.114 57.754 13.442 58.21 12.746C58.666 12.05 58.894 11.366 58.894 10.694C58.894 10.082 58.75 9.602 58.462 9.254C58.174 8.906 57.73 8.732 57.13 8.732C56.53 8.732 56.068 8.936 55.744 9.344C55.42 9.74 55.252 10.286 55.24 10.982H52.792C52.84 9.542 53.266 8.45 54.07 7.706C54.886 6.962 55.918 6.59 57.166 6.59C58.534 6.59 59.584 6.956 60.316 7.688C61.048 8.408 61.414 9.362 61.414 10.55C61.414 11.486 61.162 12.38 60.658 13.232C60.154 14.084 59.578 14.828 58.93 15.464C58.282 16.088 57.436 16.844 56.392 17.732H61.702V19.82H52.81V17.948L53.746 17.156Z" fill="#0F1428"/>
</g>
<defs>
<clipPath id="clip0_308_25">
<rect width="28" height="28" fill="white" transform="translate(43)"/>
</clipPath>
</defs>
</svg>
