<svg width="169" height="55" viewBox="0 0 169 55" fill="none" xmlns="http://www.w3.org/2000/svg">
<path d="M10.8723 7.10643L22.0851 29.7235L17.2553 39.0426L0.957443 7.12773L10.8723 7.10643ZM31.3617 10.3617C31.3617 14.5107 26.1915 21.3405 26.1915 21.3405C25.5162 15.8736 22.9135 10.8266 18.8511 7.10643H27.8936C28.3295 7.09797 28.7628 7.17547 29.1687 7.3345C29.5747 7.49353 29.9454 7.73099 30.2595 8.03329C30.5737 8.33559 30.8251 8.69681 30.9997 9.09634C31.1742 9.49587 31.2683 9.92585 31.2766 10.3617H31.3617Z" fill="#0F1428"/>
<path d="M46.1702 38.3618C37.4042 38.3618 33.0851 37.2128 33.0851 31.9788C33.0851 26.7448 37.3404 25.4469 46.1702 25.4469C44.8937 25.9808 43.8116 26.8932 43.0698 28.0612C42.3279 29.2291 41.962 30.5964 42.0213 31.9788C41.9837 33.338 42.3605 34.6765 43.1015 35.8165C43.8425 36.9566 44.9128 37.8443 46.1702 38.3618ZM36.6596 19.0852C36.6638 18.3539 36.8845 17.6402 37.2938 17.0342C37.7032 16.4282 38.2828 15.957 38.9596 15.6801C39.6365 15.4031 40.3802 15.3328 41.0969 15.4781C41.8136 15.6233 42.4713 15.9776 42.987 16.4962C43.5026 17.0147 43.853 17.6745 43.9942 18.392C44.1353 19.1096 44.0608 19.8528 43.78 20.5281C43.4991 21.2033 43.0246 21.7803 42.4163 22.1861C41.8079 22.592 41.093 22.8086 40.3617 22.8086C39.8729 22.8114 39.3885 22.7169 38.9366 22.5306C38.4848 22.3442 38.0746 22.0697 37.73 21.7231C37.3853 21.3765 37.1132 20.9647 36.9294 20.5118C36.7456 20.0589 36.6539 19.5739 36.6596 19.0852ZM59.0213 25.2129V38.4256H50.1489V20.149C50.1489 15.0426 48.0213 13.4469 48.0213 13.4469C55.9149 13.4469 59.0213 16.4256 59.0213 25.149V25.2129Z" fill="#0F1428"/>
<path d="M66.1915 17.383L75.0851 13.4469V38.3618H66.1915V17.383ZM92.5958 22.4256V38.3618H83.7022V21.7873C83.7022 18.5745 82.4894 17.0639 80.8723 16.6596C79.9619 16.4532 79.0168 16.4532 78.1064 16.6596C80.1681 14.6701 82.8828 13.498 85.7447 13.3618C91.0638 13.4469 92.5958 17.149 92.5958 22.4256Z" fill="#0F1428"/>
<path d="M97.9574 24.1703C98.0252 22.045 98.7284 19.9888 99.9761 18.267C101.224 16.5452 102.959 15.2368 104.957 14.5107C104.511 16.2554 105.468 21.0852 107.872 25.6384C109.487 29.0792 112.001 32.0198 115.149 34.149C113.711 34.5636 112.22 34.7643 110.723 34.7447C103.362 34.8511 97.9574 30.0639 97.9574 24.1703ZM124.617 46.149C124.856 47.818 124.639 49.5207 123.987 51.0757C123.335 52.6306 122.273 53.9796 120.915 54.9788C120.915 54.9788 123.872 48.1064 115.064 48.1064H106.936C102.106 48.1064 99.0639 45.9788 99.0639 42.532C99.0639 38.0639 104.128 36.0426 104.128 36.0426C104.128 36.0426 102.149 39.9788 106.66 39.9788H115.787C119.894 39.9788 124.043 41.8511 124.617 46.149ZM106.362 14.0639C107.777 13.6447 109.247 13.4368 110.723 13.4469C118.149 13.4469 123.489 18.2128 123.489 24.0852C123.411 26.1969 122.705 28.2373 121.462 29.9463C120.219 31.6553 118.495 32.9554 116.511 33.6809C116.957 31.9362 116.021 27.1064 113.574 22.5533C111.977 19.1263 109.486 16.1935 106.362 14.0639ZM118.277 9.80856C116.092 9.94531 114.051 10.9395 112.596 12.5745C112.596 12.5745 114.043 5.82985 118.979 4.40432C121.872 3.59581 124.957 7.12771 122.766 11.9362C122.206 11.2879 121.518 10.7624 120.746 10.3925C119.973 10.0227 119.133 9.81668 118.277 9.78729V9.80856Z" fill="#0F1428"/>
<path d="M138.872 5.27663C138.872 6.32115 138.562 7.34219 137.982 8.21038C137.401 9.07856 136.575 9.75486 135.61 10.1536C134.645 10.5523 133.583 10.6556 132.558 10.4502C131.534 10.2449 130.594 9.74024 129.857 9.00016C129.12 8.26009 128.619 7.31792 128.418 6.29296C128.217 5.26801 128.324 4.20639 128.727 3.2426C129.13 2.27881 129.809 1.45618 130.68 0.87895C131.55 0.301717 132.573 -0.00416781 133.617 4.39532e-05C134.31 -0.00279498 134.996 0.131918 135.636 0.39635C136.277 0.660783 136.858 1.04967 137.347 1.5405C137.836 2.03133 138.222 2.61431 138.484 3.25565C138.746 3.89699 138.878 4.58392 138.872 5.27663ZM129.149 17.383L138.021 13.4469V38.3617H129.149V17.383Z" fill="#0F1428"/>
<path d="M156 38.3618C147.234 38.3618 142.894 37.2128 142.894 31.9788C142.894 26.7448 147.149 25.4469 156 25.4469C154.704 25.9638 153.599 26.869 152.837 28.0384C152.075 29.2078 151.694 30.5841 151.745 31.9788C151.715 33.3504 152.108 34.6979 152.869 35.8393C153.63 36.9808 154.723 37.8612 156 38.3618ZM146.468 19.0852C146.468 18.3488 146.686 17.6289 147.096 17.0166C147.505 16.4043 148.086 15.927 148.767 15.6452C149.447 15.3634 150.196 15.2897 150.918 15.4333C151.64 15.577 152.304 15.9316 152.824 16.4523C153.345 16.9731 153.7 17.6365 153.843 18.3588C153.987 19.081 153.913 19.8297 153.631 20.5101C153.35 21.1904 152.872 21.772 152.26 22.1811C151.648 22.5902 150.928 22.8086 150.192 22.8086C149.702 22.8114 149.216 22.717 148.763 22.5309C148.31 22.3448 147.899 22.0707 147.552 21.7243C147.206 21.378 146.932 20.9664 146.746 20.5134C146.56 20.0604 146.465 19.5749 146.468 19.0852ZM168.851 25.2129V38.4256H159.957V20.149C159.957 15.0426 157.83 13.4469 157.83 13.4469C165.723 13.4469 168.851 16.4256 168.851 25.149V25.2129Z" fill="#0F1428"/>
</svg>
